<svg xmlns="http://www.w3.org/2000/svg" width="32" height="32" viewBox="0 0 32 32" fill="none" transform="matrix(1, 0, 0, 1, 0, 0)">
<path d="M23.334 32C18.5553 32 14.6673 28.112 14.6673 23.3334C14.6673 18.5547 18.5553 14.6667 23.334 14.6667C28.1126 14.6667 32.0006 18.5547 32.0006 23.3334C32.0006 28.112 28.1126 32 23.334 32ZM23.334 16.6667C19.658 16.6667 16.6673 19.6574 16.6673 23.3334C16.6673 27.0094 19.658 30 23.334 30C27.01 30 30.0006 27.0094 30.0006 23.3334C30.0006 19.6574 27.01 16.6667 23.334 16.6667Z" fill="#497679"/>
<path d="M23.334 32C18.5553 32 14.6673 28.112 14.6673 23.3334C14.6673 18.5547 18.5553 14.6667 23.334 14.6667C28.1126 14.6667 32.0006 18.5547 32.0006 23.3334C32.0006 28.112 28.1126 32 23.334 32ZM23.334 16.6667C19.658 16.6667 16.6673 19.6574 16.6673 23.3334C16.6673 27.0094 19.658 30 23.334 30C27.01 30 30.0006 27.0094 30.0006 23.3334C30.0006 19.6574 27.01 16.6667 23.334 16.6667Z" fill="#497679"/>
<path d="M22.0007 26.6666C21.7367 26.6666 21.4807 26.5613 21.2941 26.3733L18.6274 23.7066C18.2367 23.3159 18.2367 22.6826 18.6274 22.2919C19.0181 21.9013 19.6514 21.9013 20.0421 22.2919L21.9541 24.2026L25.9167 19.6746C26.282 19.2573 26.9127 19.2173 27.3287 19.5799C27.7447 19.9439 27.786 20.5759 27.422 20.9906L22.7554 26.3239C22.5714 26.5333 22.31 26.6573 22.034 26.6666C22.0234 26.6666 22.0114 26.6666 22.0007 26.6666Z" fill="#497679"/>
<path d="M22.0007 26.6666C21.7367 26.6666 21.4807 26.5613 21.2941 26.3733L18.6274 23.7066C18.2367 23.3159 18.2367 22.6826 18.6274 22.2919C19.0181 21.9013 19.6514 21.9013 20.0421 22.2919L21.9541 24.2026L25.9167 19.6746C26.282 19.2573 26.9127 19.2173 27.3287 19.5799C27.7447 19.9439 27.786 20.5759 27.422 20.9906L22.7554 26.3239C22.5714 26.5333 22.31 26.6573 22.034 26.6666C22.0234 26.6666 22.0114 26.6666 22.0007 26.6666Z" fill="#497679"/>
<path d="M11.3333 28C11.2693 28 11.2053 27.9946 11.1427 27.9813C11.0307 27.96 0 25.6813 0 13.24V4.99998C0 4.58664 0.253333 4.21731 0.638667 4.06798L10.972 0.0679766C11.204 -0.0213568 11.4613 -0.0213568 11.6933 0.0679766L22.0267 4.06798C22.4133 4.21731 22.6667 4.58664 22.6667 4.99998V11C22.6667 11.552 22.2187 12 21.6667 12C21.1147 12 20.6667 11.552 20.6667 11V5.68531L11.3333 2.07331L2 5.68531V13.24C2 23.3653 10.0133 25.6666 11.3493 25.98H11.352C11.8933 25.8653 12.42 26.2226 12.528 26.7653C12.636 27.3066 12.284 27.8333 11.7427 27.9413L11.4947 27.9866C11.4413 27.996 11.388 28 11.3333 28Z" fill="#497679"/>
<path d="M11.3333 28C11.2693 28 11.2053 27.9946 11.1427 27.9813C11.0307 27.96 0 25.6813 0 13.24V4.99998C0 4.58664 0.253333 4.21731 0.638667 4.06798L10.972 0.0679766C11.204 -0.0213568 11.4613 -0.0213568 11.6933 0.0679766L22.0267 4.06798C22.4133 4.21731 22.6667 4.58664 22.6667 4.99998V11C22.6667 11.552 22.2187 12 21.6667 12C21.1147 12 20.6667 11.552 20.6667 11V5.68531L11.3333 2.07331L2 5.68531V13.24C2 23.3653 10.0133 25.6666 11.3493 25.98H11.352C11.8933 25.8653 12.42 26.2226 12.528 26.7653C12.636 27.3066 12.284 27.8333 11.7427 27.9413L11.4947 27.9866C11.4413 27.996 11.388 28 11.3333 28Z" fill="#497679"/>
</svg>