<svg xmlns="http://www.w3.org/2000/svg" width="32" height="32" viewBox="0 0 32 32" fill="none">
<path d="M17 32H3C1.34575 32 0 30.6542 0 29V3C0 1.34575 1.34575 0 3 0H17C18.6542 0 20 1.34575 20 3V29C20 30.6542 18.6542 32 17 32ZM3 2C2.44863 2 2 2.44863 2 3V29C2 29.5514 2.44863 30 3 30H17C17.5514 30 18 29.5514 18 29V3C18 2.44863 17.5514 2 17 2H3Z" fill="#497679"/>
<path d="M17 32H3C1.34575 32 0 30.6542 0 29V3C0 1.34575 1.34575 0 3 0H17C18.6542 0 20 1.34575 20 3V29C20 30.6542 18.6542 32 17 32ZM3 2C2.44863 2 2 2.44863 2 3V29C2 29.5514 2.44863 30 3 30H17C17.5514 30 18 29.5514 18 29V3C18 2.44863 17.5514 2 17 2H3Z" fill="#497679"/>
<path d="M14 28C12.8972 28 12 27.1028 12 26C12 24.8972 12.8972 24 14 24C15.1028 24 16 24.8972 16 26C16 27.1028 15.1028 28 14 28Z" fill="#497679"/>
<path d="M14 28C12.8972 28 12 27.1028 12 26C12 24.8972 12.8972 24 14 24C15.1028 24 16 24.8972 16 26C16 27.1028 15.1028 28 14 28Z" fill="#497679"/>
<path d="M10 10H5C4.44769 10 4 9.55231 4 9V6C4 5.73481 4.10537 5.48044 4.29294 5.29294L5.29294 4.29294C5.48044 4.10537 5.73481 4 6 4H9C9.26519 4 9.51956 4.10537 9.70706 4.29294L10.7071 5.29294C10.8946 5.48044 11 5.73481 11 6V9C11 9.55231 10.5523 10 10 10ZM6 8H9V6.41419L8.58581 6H6.41419L6 6.41419V8Z" fill="#497679"/>
<path d="M10 10H5C4.44769 10 4 9.55231 4 9V6C4 5.73481 4.10537 5.48044 4.29294 5.29294L5.29294 4.29294C5.48044 4.10537 5.73481 4 6 4H9C9.26519 4 9.51956 4.10537 9.70706 4.29294L10.7071 5.29294C10.8946 5.48044 11 5.73481 11 6V9C11 9.55231 10.5523 10 10 10ZM6 8H9V6.41419L8.58581 6H6.41419L6 6.41419V8Z" fill="#497679"/>
<path d="M10 18H5C4.44769 18 4 17.5523 4 17V14C4 13.7348 4.10537 13.4804 4.29294 13.2929L5.29294 12.2929C5.48044 12.1054 5.73481 12 6 12H9C9.26519 12 9.51956 12.1054 9.70706 12.2929L10.7071 13.2929C10.8946 13.4804 11 13.7348 11 14V17C11 17.5523 10.5523 18 10 18ZM6 16H9V14.4142L8.58581 14H6.41419L6 14.4142V16Z" fill="#497679"/>
<path d="M10 18H5C4.44769 18 4 17.5523 4 17V14C4 13.7348 4.10537 13.4804 4.29294 13.2929L5.29294 12.2929C5.48044 12.1054 5.73481 12 6 12H9C9.26519 12 9.51956 12.1054 9.70706 12.2929L10.7071 13.2929C10.8946 13.4804 11 13.7348 11 14V17C11 17.5523 10.5523 18 10 18ZM6 16H9V14.4142L8.58581 14H6.41419L6 14.4142V16Z" fill="#497679"/>
<path d="M10 26H5C4.44769 26 4 25.5523 4 25V22C4 21.7348 4.10537 21.4804 4.29294 21.2929L5.29294 20.2929C5.48044 20.1054 5.73481 20 6 20H9C9.26519 20 9.51956 20.1054 9.70706 20.2929L10.7071 21.2929C10.8946 21.4804 11 21.7348 11 22V25C11 25.5523 10.5523 26 10 26ZM6 24H9V22.4142L8.58581 22H6.41419L6 22.4142V24Z" fill="#497679"/>
<path d="M10 26H5C4.44769 26 4 25.5523 4 25V22C4 21.7348 4.10537 21.4804 4.29294 21.2929L5.29294 20.2929C5.48044 20.1054 5.73481 20 6 20H9C9.26519 20 9.51956 20.1054 9.70706 20.2929L10.7071 21.2929C10.8946 21.4804 11 21.7348 11 22V25C11 25.5523 10.5523 26 10 26ZM6 24H9V22.4142L8.58581 22H6.41419L6 22.4142V24Z" fill="#497679"/>
<path d="M15 14H14C13.4477 14 13 13.5523 13 13C13 12.4477 13.4477 12 14 12H15C15.5523 12 16 12.4477 16 13C16 13.5523 15.5523 14 15 14Z" fill="#497679"/>
<path d="M15 14H14C13.4477 14 13 13.5523 13 13C13 12.4477 13.4477 12 14 12H15C15.5523 12 16 12.4477 16 13C16 13.5523 15.5523 14 15 14Z" fill="#497679"/>
<path d="M15 18H14C13.4477 18 13 17.5523 13 17C13 16.4477 13.4477 16 14 16H15C15.5523 16 16 16.4477 16 17C16 17.5523 15.5523 18 15 18Z" fill="#497679"/>
<path d="M15 18H14C13.4477 18 13 17.5523 13 17C13 16.4477 13.4477 16 14 16H15C15.5523 16 16 16.4477 16 17C16 17.5523 15.5523 18 15 18Z" fill="#497679"/>
<path d="M15 22H14C13.4477 22 13 21.5523 13 21C13 20.4477 13.4477 20 14 20H15C15.5523 20 16 20.4477 16 21C16 21.5523 15.5523 22 15 22Z" fill="#497679"/>
<path d="M15 22H14C13.4477 22 13 21.5523 13 21C13 20.4477 13.4477 20 14 20H15C15.5523 20 16 20.4477 16 21C16 21.5523 15.5523 22 15 22Z" fill="#497679"/>
<path d="M21 27H14C13.4477 27 13 26.5523 13 26C13 25.4477 13.4477 25 14 25H21C23.757 25 26 22.757 26 20V9C26 8.44769 26.4477 8 27 8C27.5523 8 28 8.44769 28 9V20C28 23.8598 24.8598 27 21 27Z" fill="#497679"/>
<path d="M21 27H14C13.4477 27 13 26.5523 13 26C13 25.4477 13.4477 25 14 25H21C23.757 25 26 22.757 26 20V9C26 8.44769 26.4477 8 27 8C27.5523 8 28 8.44769 28 9V20C28 23.8598 24.8598 27 21 27Z" fill="#497679"/>
<path d="M28.5 9.9375H25.5C24.1215 9.9375 23 8.816 23 7.4375V4C23 3.44769 23.4477 3 24 3H30C30.5523 3 31 3.44769 31 4V7.4375C31 8.816 29.8785 9.9375 28.5 9.9375ZM25 5V7.4375C25 7.71319 25.2243 7.9375 25.5 7.9375H28.5C28.7757 7.9375 29 7.71319 29 7.4375V5H25Z" fill="#497679"/>
<path d="M28.5 9.9375H25.5C24.1215 9.9375 23 8.816 23 7.4375V4C23 3.44769 23.4477 3 24 3H30C30.5523 3 31 3.44769 31 4V7.4375C31 8.816 29.8785 9.9375 28.5 9.9375ZM25 5V7.4375C25 7.71319 25.2243 7.9375 25.5 7.9375H28.5C28.7757 7.9375 29 7.71319 29 7.4375V5H25Z" fill="#497679"/>
<path d="M31 5H23C22.4477 5 22 4.55231 22 4C22 3.44769 22.4477 3 23 3H31C31.5523 3 32 3.44769 32 4C32 4.55231 31.5523 5 31 5Z" fill="#497679"/>
<path d="M31 5H23C22.4477 5 22 4.55231 22 4C22 3.44769 22.4477 3 23 3H31C31.5523 3 32 3.44769 32 4C32 4.55231 31.5523 5 31 5Z" fill="#497679"/>
<path d="M25 5C24.4477 5 24 4.55231 24 4V1C24 0.447688 24.4477 0 25 0C25.5523 0 26 0.447688 26 1V4C26 4.55231 25.5523 5 25 5Z" fill="#497679"/>
<path d="M25 5C24.4477 5 24 4.55231 24 4V1C24 0.447688 24.4477 0 25 0C25.5523 0 26 0.447688 26 1V4C26 4.55231 25.5523 5 25 5Z" fill="#497679"/>
<path d="M29 5C28.4477 5 28 4.55231 28 4V1C28 0.447688 28.4477 0 29 0C29.5523 0 30 0.447688 30 1V4C30 4.55231 29.5523 5 29 5Z" fill="#497679"/>
<path d="M29 5C28.4477 5 28 4.55231 28 4V1C28 0.447688 28.4477 0 29 0C29.5523 0 30 0.447688 30 1V4C30 4.55231 29.5523 5 29 5Z" fill="#497679"/>
</svg>