<?xml version="1.0" encoding="UTF-8"?>
<svg version="1.1" xmlns="http://www.w3.org/2000/svg" width="512" height="512">
<path d="M0 0 C1.8098151 -0.00874817 1.8098151 -0.00874817 3.65619212 -0.01767308 C6.98448355 -0.02774264 10.31064805 -0.01106544 13.63870132 0.01720345 C17.2359914 0.04115519 20.83320156 0.03024856 24.43054199 0.02371216 C31.47074736 0.01631428 38.51050275 0.04060209 45.55061235 0.0753131 C53.75976944 0.11439715 61.96885025 0.12021452 70.17808709 0.1242932 C84.83527953 0.13254164 99.49227242 0.16828543 114.14936829 0.22068787 C128.34891374 0.27140837 142.54837317 0.30686205 156.7480011 0.32322693 C157.62187163 0.32423787 158.49574217 0.3252488 159.39609363 0.32629038 C162.9094639 0.33031101 166.42283422 0.33427345 169.93620465 0.33814684 C185.13243838 0.3552186 200.32865487 0.38359023 215.52486566 0.41468605 C217.97673356 0.41966837 220.42860177 0.42447512 222.88047004 0.42927289 C232.20731364 0.44792449 241.53411327 0.47259338 250.86091805 0.50538826 C253.681857 0.51514906 256.50278779 0.52275318 259.3237381 0.52830124 C263.18728676 0.53601452 267.05078372 0.55143968 270.91430664 0.56762695 C272.01910848 0.56880683 273.12391032 0.56998671 274.262191 0.57120234 C293.94941582 0.67756625 311.48181413 2.05681195 326.58711243 16.04075623 C332.24786347 22.06891178 337.77461243 30.30121113 337.77461243 38.72825623 C338.7615509 38.71778259 339.74848938 38.70730896 340.76533508 38.69651794 C344.49657937 38.65977471 348.22780841 38.63716243 351.95918274 38.61839294 C353.56109829 38.60845709 355.16299632 38.59490376 356.7648468 38.57737732 C379.04004585 38.34011016 397.87973245 41.26241112 414.77461243 56.72825623 C421.85297613 64.02591519 426.76123715 72.95846739 431.77461243 81.72825623 C432.17438293 82.41951599 432.57415344 83.11077576 432.98603821 83.82298279 C438.09996532 92.68658174 442.84466742 101.69040989 447.27461243 110.91575623 C447.90677673 112.22504089 447.90677673 112.22504089 448.55171204 113.56077576 C449.14157898 114.80963562 449.14157898 114.80963562 449.74336243 116.08372498 C450.08818665 116.81228699 450.43301086 117.540849 450.7882843 118.29148865 C453.12699494 124.06937748 454.15676768 129.47188466 454.13398743 135.68528748 C454.13155029 136.45500381 454.12911316 137.22472015 454.12660217 138.01776123 C453.9354722 147.59006877 452.26698161 156.94004619 450.57637024 166.34275818 C450.02390105 169.41971824 449.49515876 172.50005772 448.96992493 175.58177185 C445.22453542 197.21868747 441.62202521 217.69761469 423.00117493 231.83372498 C416.84099037 235.88012071 410.29189255 239.40044964 403.19648743 241.48606873 C399.91498055 243.16916419 399.34645953 244.93903646 397.89961243 248.29075623 C395.16337437 254.14112711 392.01475741 258.87564585 387.77461243 263.72825623 C387.2770343 264.31993591 386.77945618 264.9116156 386.26679993 265.52122498 C375.61558886 277.21614768 360.21712332 284.12971579 344.64961243 285.66575623 C329.75547909 286.23731439 316.87439101 282.83587583 305.77461243 272.72825623 C299.14589869 266.31294172 294.66624919 259.1095338 292.70942688 250.05418396 C292.53321304 249.24400314 292.35699921 248.43382233 292.17544556 247.59909058 C292.04317062 246.98171524 291.91089569 246.3643399 291.77461243 245.72825623 C291.18897522 245.75560349 290.60333801 245.78295074 289.99995422 245.81112671 C273.59378838 246.56517689 257.19521194 247.01173317 240.77461243 247.29075623 C239.58391144 247.31193512 238.39321045 247.33311401 237.16642761 247.35493469 C218.36748187 247.6877751 199.57629645 247.87276485 180.77461243 247.72825623 C180.51937805 248.61770935 180.26414368 249.50716248 180.00117493 250.42356873 C178.0336777 255.7245326 174.45433821 259.50411468 170.77461243 263.72825623 C170.16488586 264.43466248 169.5551593 265.14106873 168.92695618 265.86888123 C158.20550053 277.43257436 143.23623497 284.14342239 127.64961243 285.66575623 C112.85847987 286.18095298 100.27878329 282.43179017 88.77461243 272.91575623 C82.37899526 266.76978211 78.38394049 259.1360911 75.77461243 250.72825623 C75.77461243 249.40825623 75.77461243 248.08825623 75.77461243 246.72825623 C74.87782776 246.73713867 73.98104309 246.74602112 73.05708313 246.75517273 C64.58312898 246.83550283 56.10930373 246.89631403 47.63505554 246.93550491 C43.27890201 246.95633115 38.92306456 246.98455722 34.5670929 247.03001404 C30.35900286 247.07365009 26.15121579 247.09743063 21.94291687 247.1077652 C20.34181452 247.11512486 18.74072773 247.12949642 17.13975525 247.15117645 C1.51717603 247.35421532 1.51717603 247.35421532 -5.22538757 242.72825623 C-9.58951698 238.24928131 -11.50949676 233.65064167 -11.66288757 227.41575623 C-11.52921139 220.33091863 -8.740601 216.24346965 -3.85038757 211.35325623 C1.31514285 208.15554692 6.60857101 207.48610281 12.59101868 207.45481873 C13.84978821 207.43419373 15.10855774 207.41356873 16.4054718 207.39231873 C19.03040554 207.36623891 21.65542911 207.34803258 24.2804718 207.33763123 C25.53795227 207.3144281 26.79543274 207.29122498 28.09101868 207.26731873 C29.22998596 207.25910095 30.36895325 207.25088318 31.54243469 207.24241638 C36.43448081 206.4642119 39.65055032 204.23992596 42.58711243 200.29075623 C45.16312581 194.7319905 44.7151758 191.54994635 42.77461243 185.72825623 C42.44461243 184.73825623 42.11461243 183.74825623 41.77461243 182.72825623 C36.2012816 179.0841553 29.58421404 178.47807685 23.09858704 178.45701599 C22.36593124 178.45178925 21.63327545 178.4465625 20.87841797 178.44117737 C19.29996804 178.43099709 17.72148511 178.42516748 16.14300346 178.42329597 C13.64127028 178.4196099 11.1399256 178.40282435 8.63827515 178.38253784 C1.5300672 178.32732716 -5.57819582 178.29641964 -12.68656921 178.2719574 C-17.04547505 178.25605792 -21.40410077 178.2258215 -25.76286125 178.18719292 C-27.41856852 178.17557203 -29.07432588 178.16961282 -30.73007393 178.1695118 C-33.04659849 178.16931911 -35.36235229 178.15100928 -37.67875671 178.12889099 C-38.99445145 178.12382034 -40.31014618 178.11874969 -41.66571045 178.11352539 C-47.14808824 177.52015946 -51.0657979 175.49583814 -54.53788757 171.22825623 C-55.02902039 170.64044373 -55.5201532 170.05263123 -56.02616882 169.44700623 C-59.40498399 164.60440468 -58.6215251 158.35639884 -58.22538757 152.72825623 C-56.50886547 147.27577424 -52.82919084 143.94045532 -48.22538757 140.72825623 C-44.5691837 139.5095216 -41.19987504 139.57581321 -37.3926239 139.57054138 C-36.59548981 139.56546066 -35.79835571 139.56037994 -34.97706604 139.55514526 C-33.24520784 139.54444393 -31.51333583 139.53582282 -29.7814579 139.52902603 C-27.035944 139.51722643 -24.29058665 139.4977691 -21.5451355 139.47590637 C-13.73865508 139.41433826 -5.93218964 139.36032398 1.87446594 139.32688904 C6.65022735 139.30588487 11.42570484 139.27053219 16.20130348 139.22613144 C18.01723693 139.21201303 19.83322062 139.20325844 21.64920616 139.20007706 C24.19806252 139.19514063 26.74617267 139.17191195 29.2948761 139.14476013 C30.03751205 139.14776627 30.78014801 139.1507724 31.54528809 139.15386963 C36.8726547 139.07004929 40.90400863 137.92549055 45.77461243 135.72825623 C50.31611743 130.95385353 51.14598535 127.69260258 51.04414368 121.26731873 C50.63556367 117.41837665 49.43039997 115.51683315 46.77461243 112.72825623 C39.08588564 107.42099349 30.68396446 108.19233479 21.71211243 108.22825623 C18.67893715 108.24037235 15.64748216 108.22646595 12.61445618 108.19700623 C11.59073158 108.2139856 11.59073158 108.2139856 10.54632568 108.23130798 C3.8059704 108.16118186 -0.31919059 105.63445321 -5.03788757 100.91575623 C-8.85538141 95.35312235 -9.73019491 90.42962431 -8.76054382 83.86497498 C-7.26819702 77.90648081 -3.04992925 74.20192623 1.77461243 70.72825623 C7.21076695 68.32645293 12.38187204 68.44874095 18.21211243 68.45481873 C20.26159712 68.43453642 22.31107625 68.41368577 24.36054993 68.39231873 C27.57316304 68.36970161 30.78555608 68.35323633 33.99824524 68.34739685 C37.11159936 68.33786715 40.22397748 68.30409422 43.33711243 68.26731873 C44.29351624 68.2723642 45.24992004 68.27740967 46.23530579 68.28260803 C53.16713949 68.18058272 56.62714035 66.87572831 61.58711243 61.91575623 C63.29586351 58.76805686 63.65326993 56.30785981 63.77461243 52.72825623 C62.29388845 48.13021861 60.67449885 44.65317104 56.77461243 41.72825623 C49.96046222 39.04334761 43.04373157 39.46688089 35.80976868 39.48997498 C34.44887528 39.48394594 33.08798807 39.47633473 31.72711182 39.46722412 C25.97900207 39.43032887 20.23108962 39.41153901 14.48286438 39.4228363 C10.95370451 39.42871787 7.42534227 39.41028779 3.89634514 39.3769474 C1.91569306 39.36523183 -0.0650598 39.38026886 -2.04568481 39.39590454 C-9.30925862 39.31726499 -14.73382131 38.79344243 -20.22538757 33.72825623 C-25.03462307 27.56256969 -25.9968828 22.3637899 -25.22538757 14.72825623 C-23.63544497 8.61557148 -20.09564527 5.30655713 -14.88954008 1.98084056 C-10.04828384 -0.29533609 -5.26544835 -0.07924405 0 0 Z M140.77461243 38.72825623 C139.82070618 38.76563904 138.86679993 38.80302185 137.88398743 38.84153748 C121.13920945 39.50489751 121.13920945 39.50489751 107.14961243 48.16575623 C99.76131287 57.71727028 98.91222198 73.60345913 96.89961243 85.16575623 C96.72919434 86.13125397 96.55877625 87.09675171 96.38319397 88.09150696 C93.68373261 103.44310494 91.39759893 118.83289485 89.39961243 134.29075623 C89.27846069 135.22700836 89.15730896 136.1632605 89.03248596 137.12788391 C85.64368664 161.84562884 85.64368664 161.84562884 84.52461243 186.72825623 C84.51687805 187.55841248 84.50914368 188.38856873 84.50117493 189.24388123 C84.51453893 193.38672256 84.70518757 196.05384545 86.77461243 199.72825623 C87.73367493 198.73825623 87.73367493 198.73825623 88.71211243 197.72825623 C89.72962413 196.72487663 90.75095069 195.7253607 91.77461243 194.72825623 C92.38304993 194.12368591 92.99148743 193.5191156 93.61836243 192.89622498 C101.99493464 184.97286283 112.47656585 178.44607657 123.77461243 175.72825623 C124.8342218 175.45561951 124.8342218 175.45561951 125.91523743 175.17747498 C136.3512346 173.5379399 149.08354428 173.20575776 158.77461243 177.72825623 C159.69500305 178.15364685 160.61539368 178.57903748 161.56367493 179.01731873 C172.88154698 184.72201434 179.95910029 192.98844621 184.35957336 204.89842224 C184.75883026 205.97532066 184.75883026 205.97532066 185.16615295 207.07397461 C185.36694458 207.61988754 185.56773621 208.16580048 185.77461243 208.72825623 C206.02798992 208.91866258 226.30220341 209.09768866 246.53987122 208.14640808 C248.05491726 208.07672997 249.57033128 208.01458832 251.08601379 207.960495 C263.75900975 207.4895248 263.75900975 207.4895248 274.77461243 201.72825623 C279.74669618 196.36571728 281.95047613 191.27406825 283.39961243 184.18138123 C283.59998108 183.27237061 283.80034973 182.36335999 284.00679016 181.42680359 C286.28425167 170.84148591 288.07091581 160.16831966 289.77461243 149.47825623 C289.94414429 148.42731781 290.11367615 147.37637939 290.28834534 146.29359436 C293.68661203 125.17255814 296.57931601 104.00859915 298.77461243 82.72825623 C298.84957947 82.00323914 298.92454651 81.27822205 299.00178528 80.53123474 C299.47274659 75.91292777 299.89043359 71.29224379 300.27461243 66.66575623 C300.37628723 65.55418152 300.47796204 64.44260681 300.5827179 63.29734802 C301.04237308 56.90291079 300.64090719 52.50686425 297.77461243 46.72825623 C289.71704077 38.30443131 278.62437328 39.15109253 267.77461243 38.72825623 C266.73159973 38.68313904 265.68858704 38.63802185 264.6139679 38.59153748 C223.41331602 36.85899124 181.97207063 36.94371286 140.77461243 38.72825623 Z M337.77461243 77.72825623 C336.22454573 80.82838962 336.21128838 84.19745845 335.86445618 87.60716248 C335.68210341 89.30777295 335.49887266 91.00828945 335.31489563 92.70872498 C335.2172995 93.61670837 335.11970337 94.52469177 335.01914978 95.46018982 C333.06503901 113.4750673 330.55543904 131.35282249 327.58711243 149.22825623 C327.41307892 150.27724091 327.23904541 151.32622559 327.05973816 152.40699768 C325.37384466 162.52841982 323.62690354 172.63588672 321.77461243 182.72825623 C326.09764678 181.39809181 330.08297078 179.70551387 334.13789368 177.72825623 C346.579457 173.00967814 362.80187897 172.47360904 375.17304993 177.47434998 C386.72198398 183.0407281 394.57499838 189.81247404 399.77461243 201.72825623 C401.73943633 201.21015263 401.73943633 201.21015263 403.77461243 199.72825623 C406.34796765 194.59019779 407.58318735 189.64107256 408.56367493 184.00559998 C408.71243073 183.18306229 408.86118652 182.3605246 409.01445007 181.51306152 C409.32598895 179.77831677 409.63334431 178.04281601 409.9367218 176.30662537 C410.39438724 173.69556679 410.86859916 171.08792034 411.34492493 168.48020935 C412.2287949 163.57352962 413.02712263 158.65742893 413.77461243 153.72825623 C413.97683411 152.42646423 414.17905579 151.12467224 414.3874054 149.78343201 C415.41477949 141.06453847 413.76257418 135.39857679 409.64961243 127.72825623 C408.8378656 126.13582092 408.8378656 126.13582092 408.00971985 124.51121521 C406.30952546 121.22387971 404.55481321 117.972887 402.77461243 114.72825623 C401.93132385 113.18355652 401.93132385 113.18355652 401.07099915 111.60765076 C390.69972384 91.37258463 390.69972384 91.37258463 372.77461243 78.72825623 C368.70680893 77.73397514 364.90540877 77.61280603 360.72383118 77.63059998 C359.73562126 77.6327224 359.73562126 77.6327224 358.72744751 77.6348877 C356.63895481 77.64045122 354.55057231 77.65299676 352.46211243 77.66575623 C351.03958794 77.67077595 349.61706176 77.67533803 348.1945343 77.6794281 C344.72119166 77.69040865 341.24791281 77.70764787 337.77461243 77.72825623 Z M119.96211243 217.47825623 C115.64428671 221.48062436 113.6794266 225.91465865 113.39961243 231.79075623 C113.92937966 237.35331218 115.19323425 240.33513736 119.39961243 244.04075623 C124.54100873 246.61145438 128.7424559 247.60177341 134.36445618 245.98216248 C140.94073546 243.1242005 144.73543071 239.19769084 147.77461243 232.72825623 C149.2645907 227.73244673 148.80499092 224.20741105 146.77461243 219.52122498 C144.37172551 215.21292382 141.03255483 213.60446342 136.46211243 212.29075623 C129.82005494 211.06808893 125.1421048 213.43851374 119.96211243 217.47825623 Z M335.25117493 219.13841248 C331.65069211 223.01512281 330.58514855 226.55050212 330.33711243 231.72825623 C330.51544121 236.47893499 331.41396209 239.19957337 334.77461243 242.72825623 C338.71441937 245.65420766 342.33645822 247.08073419 347.27461243 246.79075623 C353.82883705 245.63811672 358.84898164 242.47343092 362.77461243 237.10325623 C365.53177258 232.16840687 365.68360496 227.23271104 364.77461243 221.72825623 C362.61623663 217.25162495 360.3249069 214.73885146 355.77461243 212.72825623 C347.47646337 210.53629232 341.31132813 213.4795023 335.25117493 219.13841248 Z " fill="#F57E38" transform="translate(58.22538757324219,113.27174377441406)"/>
<path d="M0 0 C1.2684375 -0.00064453 2.536875 -0.00128906 3.84375 -0.00195312 C4.83133301 0.01363647 4.83133301 0.01363647 5.83886719 0.02954102 C7.83768399 0.05839342 9.83694153 0.04788827 11.8359375 0.03710938 C19.43594335 0.08721083 24.81982624 0.33351104 30.7890625 5.49609375 C34.3663002 9.73578287 33.86555428 14.76764612 33.82421875 20.05859375 C33.16055686 26.62064392 30.46729042 31.55166183 25.7890625 36.12109375 C23.4765625 37.49609375 23.4765625 37.49609375 21.4765625 37.49609375 C21.84910156 38.35332031 22.22164062 39.21054688 22.60546875 40.09375 C27.5808002 52.1185974 27.5808002 52.1185974 25.4765625 57.49609375 C23.2890625 59.55859375 23.2890625 59.55859375 20.4765625 60.49609375 C17.51171875 60.09375 17.51171875 60.09375 14.4765625 58.49609375 C12.85982229 55.77361939 11.99991539 52.89505757 11.1015625 49.87109375 C10.71291016 48.66839844 10.71291016 48.66839844 10.31640625 47.44140625 C9.68159173 45.46642775 9.07617462 43.4820431 8.4765625 41.49609375 C4.5165625 41.16609375 0.5565625 40.83609375 -3.5234375 40.49609375 C-3.56082031 41.44871094 -3.59820312 42.40132812 -3.63671875 43.3828125 C-3.70246094 44.63707031 -3.76820313 45.89132813 -3.8359375 47.18359375 C-3.89394531 48.42496094 -3.95195312 49.66632813 -4.01171875 50.9453125 C-4.53768774 54.59497516 -5.29724335 56.58907324 -7.5234375 59.49609375 C-10.34833135 60.58259139 -11.86451882 60.67912672 -14.7734375 59.87109375 C-17.20085186 57.96383961 -17.12334847 56.51363945 -17.5234375 53.49609375 C-17.40486145 51.06150818 -17.40486145 51.06150818 -17.05786133 48.49389648 C-16.86689629 47.04230385 -16.86689629 47.04230385 -16.67207336 45.56138611 C-16.52634384 44.52792557 -16.38061432 43.49446503 -16.23046875 42.4296875 C-16.08316818 41.35864273 -15.93586761 40.28759796 -15.78410339 39.18409729 C-15.46979949 36.9232984 -15.15095122 34.66312727 -14.82788086 32.40356445 C-14.33757422 28.9451385 -13.87425591 25.48377112 -13.41210938 22.02148438 C-13.10320998 19.82398654 -12.79271662 17.62671205 -12.48046875 15.4296875 C-12.34486038 14.39420273 -12.20925201 13.35871796 -12.0695343 12.29185486 C-11.47602603 8.2904523 -11.02156353 5.26665351 -8.80883789 1.84375 C-5.73923192 0.03366294 -3.55644862 -0.00570182 0 0 Z M1.4765625 11.49609375 C1.15894946 12.82821836 0.84782263 14.16188941 0.5390625 15.49609375 C0.27802734 16.60984375 0.27802734 16.60984375 0.01171875 17.74609375 C-0.68288294 21.31543382 -1.09878517 24.88463612 -1.5234375 28.49609375 C1.39422141 28.60415519 4.30787375 28.68342252 7.2265625 28.74609375 C8.0515625 28.77960938 8.8765625 28.813125 9.7265625 28.84765625 C14.66943905 28.94781184 14.66943905 28.94781184 19 26.765625 C20.58557007 24.32854507 21.10797815 22.81276071 21.3515625 19.93359375 C21.43148437 19.16917969 21.51140625 18.40476563 21.59375 17.6171875 C21.63980701 15.19067494 21.63980701 15.19067494 19.4765625 12.49609375 C15.85788691 11.28986855 12.55149999 11.38792457 8.7890625 11.43359375 C8.08716797 11.43810547 7.38527344 11.44261719 6.66210938 11.44726562 C4.93355712 11.45902448 3.20504885 11.47695921 1.4765625 11.49609375 Z " fill="#F47936" transform="translate(221.5234375,181.50390625)"/>
<path d="M0 0 C0.72206635 0.00091644 1.44413269 0.00183289 2.18807983 0.0027771 C3.70943809 0.00880371 5.23078499 0.02452175 6.75195312 0.04931641 C9.08507767 0.08592401 11.41661769 0.09033499 13.75 0.08984375 C15.22918044 0.09967173 16.7083501 0.11132734 18.1875 0.125 C19.23594589 0.12833847 19.23594589 0.12833847 20.30557251 0.13174438 C25.22874248 0.22874248 25.22874248 0.22874248 27.4609375 2.4609375 C28.01428782 7.6624305 28.01428782 7.6624305 26.30151367 10.1340332 C23.71105649 12.00154014 21.86967464 11.8021873 18.69921875 11.75390625 C17.58095703 11.74423828 16.46269531 11.73457031 15.31054688 11.72460938 C14.14330078 11.69947266 12.97605469 11.67433594 11.7734375 11.6484375 C10.59458984 11.63490234 9.41574219 11.62136719 8.20117188 11.60742188 C5.28756617 11.57203395 2.37419486 11.51822661 -0.5390625 11.4609375 C-0.8690625 15.4209375 -1.1990625 19.3809375 -1.5390625 23.4609375 C-0.19070313 23.43773437 1.15765625 23.41453125 2.546875 23.390625 C4.30989031 23.37186952 6.07291159 23.35366908 7.8359375 23.3359375 C8.72539062 23.31917969 9.61484375 23.30242187 10.53125 23.28515625 C11.38203125 23.27871094 12.2328125 23.27226562 13.109375 23.265625 C14.28765869 23.24991455 14.28765869 23.24991455 15.48974609 23.23388672 C17.4609375 23.4609375 17.4609375 23.4609375 19.4609375 25.4609375 C20.01841862 30.70126001 20.01841862 30.70126001 18.2331543 33.1340332 C15.94173359 34.84967882 14.63422372 34.80819775 11.79296875 34.75390625 C10.90029297 34.74423828 10.00761719 34.73457031 9.08789062 34.72460938 C7.69473633 34.6869043 7.69473633 34.6869043 6.2734375 34.6484375 C5.33306641 34.63490234 4.39269531 34.62136719 3.42382812 34.60742188 C1.10228712 34.57206846 -1.21809903 34.52272424 -3.5390625 34.4609375 C-3.59964844 35.30398437 -3.66023438 36.14703125 -3.72265625 37.015625 C-3.80644531 38.11132812 -3.89023437 39.20703125 -3.9765625 40.3359375 C-4.05777344 41.42648438 -4.13898438 42.51703125 -4.22265625 43.640625 C-4.5390625 46.4609375 -4.5390625 46.4609375 -5.5390625 48.4609375 C-4.86327148 48.43999023 -4.18748047 48.41904297 -3.49121094 48.39746094 C-0.42397996 48.31422107 2.64301332 48.26225284 5.7109375 48.2109375 C6.77441406 48.17742187 7.83789062 48.14390625 8.93359375 48.109375 C9.95839844 48.09648437 10.98320312 48.08359375 12.0390625 48.0703125 C12.98168945 48.04936523 13.92431641 48.02841797 14.89550781 48.00683594 C18.18001625 48.58822019 19.35263216 49.95352909 21.4609375 52.4609375 C19.8359375 58.2109375 19.8359375 58.2109375 16.4609375 60.4609375 C12.05251579 60.87107133 7.63485867 60.83254176 3.2097168 60.83154297 C1.03419696 60.83591587 -1.13929227 60.87224173 -3.31445312 60.91015625 C-4.70051391 60.91602493 -6.08658431 60.91999398 -7.47265625 60.921875 C-9.3606897 60.93420166 -9.3606897 60.93420166 -11.28686523 60.94677734 C-14.5390625 60.4609375 -14.5390625 60.4609375 -16.97265625 58.64379883 C-19.31053857 55.38584904 -18.65715661 52.53981076 -18.1015625 48.7734375 C-17.99956543 47.98122803 -17.89756836 47.18901855 -17.79248047 46.37280273 C-17.54612159 44.51585985 -17.28721019 42.66055969 -17.01904297 40.80664062 C-16.66521929 38.34031324 -16.32570165 35.87439209 -16.00048828 33.40429688 C-15.51130461 29.69092086 -15.00179374 25.98081592 -14.47872925 22.27206421 C-14.26948756 20.77681107 -14.06497299 19.28088856 -13.86526489 17.78433228 C-13.57791538 15.65423316 -13.26837696 13.5284697 -12.953125 11.40234375 C-12.68943115 9.54138062 -12.68943115 9.54138062 -12.42041016 7.64282227 C-10.49092201 0.67688902 -6.68173949 -0.13818011 0 0 Z " fill="#F7883D" transform="translate(320.5390625,181.5390625)"/>
<path d="M0 0 C0.69608368 -0.00004028 1.39216736 -0.00008057 2.10934448 -0.00012207 C3.573477 0.00521721 5.03761033 0.02273228 6.50146484 0.05175781 C8.74275029 0.09376055 10.98104201 0.09281211 13.22265625 0.0859375 C23.99166224 0.16515805 23.99166224 0.16515805 26.56982422 1.93164062 C27.6171875 3.59375 27.6171875 3.59375 27.4921875 6.65625 C26.6171875 9.59375 26.6171875 9.59375 23.6171875 11.59375 C21.07348633 11.82080078 21.07348633 11.82080078 18.07421875 11.7890625 C16.46450195 11.77939453 16.46450195 11.77939453 14.82226562 11.76953125 C13.14293945 11.74439453 13.14293945 11.74439453 11.4296875 11.71875 C10.29853516 11.70972656 9.16738281 11.70070312 8.00195312 11.69140625 C5.20694121 11.66781965 2.41203791 11.63194841 -0.3828125 11.59375 C-1.0428125 15.55375 -1.7028125 19.51375 -2.3828125 23.59375 C-0.36027344 23.57634766 -0.36027344 23.57634766 1.703125 23.55859375 C3.46614445 23.54921599 5.2291654 23.54011577 6.9921875 23.53125 C8.32636719 23.51868164 8.32636719 23.51868164 9.6875 23.50585938 C10.96367187 23.50102539 10.96367187 23.50102539 12.265625 23.49609375 C13.05114746 23.49085693 13.83666992 23.48562012 14.64599609 23.48022461 C16.6171875 23.59375 16.6171875 23.59375 18.6171875 24.59375 C19.53669284 27.42889145 19.82655222 29.01397079 18.8046875 31.84375 C17.6171875 33.59375 17.6171875 33.59375 15.6171875 34.59375 C14.09570424 34.67747659 12.57062972 34.70105027 11.046875 34.69140625 C10.15097656 34.68818359 9.25507813 34.68496094 8.33203125 34.68164062 C6.92630859 34.66907227 6.92630859 34.66907227 5.4921875 34.65625 C4.07486328 34.64948242 4.07486328 34.64948242 2.62890625 34.64257812 C0.2916398 34.63077375 -2.04559419 34.61283799 -4.3828125 34.59375 C-4.7128125 39.21375 -5.0428125 43.83375 -5.3828125 48.59375 C-3.07023437 48.54154297 -3.07023437 48.54154297 -0.7109375 48.48828125 C1.31509327 48.46014193 3.34113583 48.43284193 5.3671875 48.40625 C6.38296875 48.38111328 7.39875 48.35597656 8.4453125 48.33007812 C9.425 48.32041016 10.4046875 48.31074219 11.4140625 48.30078125 C12.31479492 48.2850708 13.21552734 48.26936035 14.14355469 48.25317383 C17.11595913 48.66242217 18.46316261 49.53537071 20.6171875 51.59375 C21.1796875 54.03125 21.1796875 54.03125 20.6171875 56.59375 C17.85119768 59.41797119 16.19781092 60.50993739 12.25146484 61.07958984 C10.9980127 61.07137207 9.74456055 61.0631543 8.453125 61.0546875 C7.77923737 61.05377106 7.10534973 61.05285461 6.41104126 61.0519104 C4.99400744 61.04589497 3.57698511 61.03021076 2.16015625 61.00537109 C-0.00828842 60.96874196 -2.17502744 60.96435287 -4.34375 60.96484375 C-14.93934211 60.88939693 -14.93934211 60.88939693 -18.3828125 58.59375 C-20.29505754 49.46268956 -17.37845937 38.23361201 -16.09399414 29.09423828 C-15.69370002 26.20711999 -15.32425083 23.31702247 -14.95507812 20.42578125 C-14.69980072 18.57786375 -14.44270346 16.73019654 -14.18359375 14.8828125 C-14.0781575 14.0244278 -13.97272125 13.16604309 -13.86408997 12.28164673 C-13.26452194 8.25109537 -12.62345375 5.93421463 -10.23168945 2.55029297 C-6.59447721 0.05233951 -4.3916489 -0.02403689 0 0 Z " fill="#F68139" transform="translate(275.3828125,181.40625)"/>
<path d="M0 0 C2.20594666 -0.00972854 4.4109704 -0.04076225 6.61669922 -0.07226562 C8.01382909 -0.07879352 9.41096564 -0.08404483 10.80810547 -0.08789062 C12.08363281 -0.09723633 13.35916016 -0.10658203 14.67333984 -0.11621094 C15.676875 0.00141602 16.68041016 0.11904297 17.71435547 0.24023438 C19.71435547 3.24023438 19.71435547 3.24023438 19.52685547 6.24023438 C18.67292911 9.39319324 18.26165932 10.32316227 15.71435547 12.24023438 C13.35424805 12.58081055 13.35424805 12.58081055 10.60888672 12.53320312 C9.62597656 12.52353516 8.64306641 12.51386719 7.63037109 12.50390625 C6.60621094 12.47876953 5.58205078 12.45363281 4.52685547 12.42773438 C2.97321289 12.40743164 2.97321289 12.40743164 1.38818359 12.38671875 C-1.16998065 12.35135242 -3.72787782 12.29754533 -6.28564453 12.24023438 C-6.61564453 16.20023438 -6.94564453 20.16023438 -7.28564453 24.24023438 C-5.58794922 24.22283203 -5.58794922 24.22283203 -3.85595703 24.20507812 C-2.37418784 24.19569984 -0.89241688 24.18659968 0.58935547 24.17773438 C1.33572266 24.16935547 2.08208984 24.16097656 2.85107422 24.15234375 C8.48779297 24.12695312 8.48779297 24.12695312 10.71435547 25.24023438 C11.52685547 27.49023438 11.52685547 27.49023438 11.71435547 30.24023438 C9.52032562 34.8372493 9.52032562 34.8372493 6.71435547 36.24023438 C3.99675439 36.31205259 1.30576159 36.33322944 -1.41064453 36.30273438 C-2.16474609 36.29822266 -2.91884766 36.29371094 -3.69580078 36.2890625 C-5.5591158 36.27726937 -7.42239008 36.25933379 -9.28564453 36.24023438 C-9.36081299 36.8303833 -9.43598145 37.42053223 -9.51342773 38.02856445 C-9.86186558 40.70518863 -10.22976628 43.37878478 -10.59814453 46.05273438 C-10.71609375 46.98150391 -10.83404297 47.91027344 -10.95556641 48.8671875 C-11.08125 49.75986328 -11.20693359 50.65253906 -11.33642578 51.57226562 C-11.44639893 52.3944458 -11.55637207 53.21662598 -11.66967773 54.0637207 C-12.39593698 56.62995186 -13.1481491 57.66244712 -15.28564453 59.24023438 C-18.84814453 59.55273438 -18.84814453 59.55273438 -22.28564453 59.24023438 C-24.28564453 57.24023438 -24.28564453 57.24023438 -24.34570312 54.84716797 C-23.51923178 45.95591325 -22.45851891 37.10818168 -21.23876953 28.26318359 C-20.9084521 25.849212 -20.59306617 23.43355987 -20.27783203 21.01757812 C-20.06520044 19.45885996 -19.85169019 17.90026134 -19.63720703 16.34179688 C-19.50108505 15.27597885 -19.50108505 15.27597885 -19.36221313 14.18862915 C-18.67778231 9.38548948 -17.45221401 5.53835113 -15.28564453 1.24023438 C-10.87291414 -0.96613082 -4.90616147 0.01313857 0 0 Z " fill="#F37132" transform="translate(186.28564453125,181.759765625)"/>
<path d="M0 0 C5.06733757 3.64848305 7.66269173 7.15704889 9.125 13.25 C9.63625152 18.77151643 8.96425068 23.47744376 6.125 28.25 C2.23562773 32.45538377 -1.4026066 35.90780937 -7.29296875 36.48828125 C-13.67181672 36.65922358 -18.72292152 36.26885487 -23.875 32.25 C-28.96321343 26.66692292 -30.29196571 21.59479704 -30.22265625 14.109375 C-29.5294386 8.40785457 -26.44285737 4.7776559 -22.4375 0.875 C-15.38520738 -3.59718557 -7.45733628 -3.94517145 0 0 Z " fill="#EF5726" transform="translate(32.875,184.75)"/>
</svg>
